<?xml version="1.0" encoding="UTF-8"?>
<svg version="1.1" xmlns="http://www.w3.org/2000/svg" width="512" height="512">
<path d="M0 0 C4.07468902 3.44833187 7.8993678 7.11853542 11.5625 11 C14.76095671 9.61027754 16.62668136 8.02540776 18.9375 5.4375 C28.08227001 -3.8766176 39.13885623 -9.41596701 51.5625 -13 C52.38878906 -13.24492187 53.21507812 -13.48984375 54.06640625 -13.7421875 C73.12736399 -18.45098586 93.45229906 -13.704013 110.0625 -3.9375 C126.35453748 6.91601052 138.07432753 23.94071909 142.0546875 43.15625 C144.31907615 60.29593025 142.35021531 75.50266554 135 91.1875 C134.59007812 92.09495972 134.59007812 92.09495972 134.171875 93.02075195 C128.54488954 104.17233311 117.32738203 113.38251841 108.58325195 122.09277344 C107.53709244 123.13864984 106.49115513 124.18474855 105.44541931 125.23104858 C102.64673986 128.03001115 99.84502139 130.82591261 97.04268289 133.62121105 C94.09940481 136.55817358 91.15902006 139.49803013 88.2183075 142.43756104 C82.6674613 147.98531783 77.11407448 153.53052397 71.55973548 159.07478356 C65.22869974 165.39458329 58.90055459 171.71727412 52.57263243 178.04019117 C39.57243431 191.02997913 26.56866971 204.01619131 13.5625 217 C9.94834691 215.46815109 7.619044 213.31728515 4.84539795 210.56378174 C4.38618336 210.11050939 3.92696877 209.65723705 3.45383859 209.19022918 C1.91854323 207.67225624 0.39045587 206.14723264 -1.13769531 204.62207031 C-2.23820852 203.53081784 -3.3391147 202.43996157 -4.44038391 201.34947205 C-7.43123541 198.38484736 -10.41540556 195.41358642 -13.39761066 192.44026661 C-15.26486647 190.57888115 -17.13328686 188.71867246 -19.00206757 186.85881805 C-24.85968712 181.02855483 -30.71327705 175.19428998 -36.56109452 169.35419488 C-43.28999167 162.63423399 -50.0317043 155.92749768 -56.78511548 149.23217511 C-62.01636247 144.04435154 -67.23583781 138.84487053 -72.44674945 133.63662219 C-75.55294244 130.53251355 -78.66368086 127.43333466 -81.78678131 124.34622955 C-84.73212789 121.43417015 -87.66241293 118.5077155 -90.58244896 115.57028389 C-91.64781624 114.50339254 -92.71818688 113.44146633 -93.79426765 112.3853817 C-107.92208537 98.50450209 -117.46379949 80.63169324 -117.81835938 60.50463867 C-117.77447767 40.81089402 -112.48802487 22.34691467 -98.49462891 7.95336914 C-97.15472102 6.62290371 -95.79663882 5.31081389 -94.4375 4 C-93.80457031 3.33613281 -93.17164063 2.67226563 -92.51953125 1.98828125 C-68.1854534 -21.91605571 -25.70637822 -19.97664332 0 0 Z " fill="#D70026" transform="translate(243.4375,39)"/>
<path d="M0 0 C6.24471366 6.75816789 8.68421385 12.8709095 9 22 C8.5625 25.625 8.5625 25.625 8 28 C9.19625 28.495 10.3925 28.99 11.625 29.5 C17.728728 32.53021957 21.24697382 37.90057242 24 44 C25.84351343 51.77600047 24.32348854 58.49632344 22.25 66.0546875 C21.93708008 67.2483493 21.62416016 68.44201111 21.30175781 69.67184448 C20.41574684 73.04804918 19.50768222 76.41799805 18.59619141 79.78739929 C17.54147462 83.70169107 16.50694971 87.62134112 15.46875 91.54003906 C12.91181342 101.17262773 10.32278122 110.79646697 7.72900391 120.41918945 C6.27538349 125.81452604 4.82552877 131.21087589 3.37519836 136.60709763 C2.20580142 140.95705252 1.03482733 145.30656965 -0.13989258 149.65509033 C-2.15494444 157.11720427 -4.15962591 164.5810344 -6.10546875 172.06152344 C-6.41967773 173.25969696 -6.73388672 174.45787048 -7.05761719 175.69235229 C-7.61902233 177.83767465 -8.17375829 179.98476095 -8.71972656 182.13406372 C-11.88369493 194.16883217 -17.40525582 202.12355744 -26.796875 210.1171875 C-29.23753149 212.20299677 -31.61948824 214.34585592 -34 216.5 C-37.61676345 219.76390848 -41.26389608 222.98790949 -44.9375 226.1875 C-47.30964429 228.27211164 -49.65556065 230.38428644 -52 232.5 C-54.98062721 235.18983431 -57.97245233 237.86310364 -61 240.5 C-62.33366776 241.66628436 -63.66697832 242.83297725 -65 244 C-65.82757813 244.721875 -66.65515625 245.44375 -67.5078125 246.1875 C-77.83973152 255.3165986 -83.75928058 261.93524939 -85 276 C-85.24879365 280.33141608 -85.41102061 284.66421277 -85.5625 289 C-85.60568359 290.15628906 -85.64886719 291.31257813 -85.69335938 292.50390625 C-85.79867917 295.33583854 -85.90081087 298.16784747 -86 301 C-83.36 301 -80.72 301 -78 301 C-78 322.12 -78 343.24 -78 365 C-114.96 365 -151.92 365 -190 365 C-190 343.88 -190 322.76 -190 301 C-187.36 301 -184.72 301 -182 301 C-182.00888245 299.84092133 -182.01776489 298.68184265 -182.0269165 297.48764038 C-182.10833703 286.51381267 -182.1681252 275.54004702 -182.20724869 264.56598473 C-182.22803929 258.92537122 -182.2561998 253.2850034 -182.30175781 247.64453125 C-182.34552133 242.19152061 -182.36920107 236.73874489 -182.37950897 231.28557205 C-182.38684593 229.21495496 -182.40117181 227.14434934 -182.42292023 225.07383347 C-182.6339979 204.12752715 -179.06380729 188.26704449 -164.40625 172.3515625 C-163.6121875 171.57554687 -162.818125 170.79953125 -162 170 C-161.54512207 169.555354 -161.09024414 169.11070801 -160.62158203 168.65258789 C-155.01958488 163.50777316 -148.44091092 159.94975597 -141.875 156.1875 C-140.59217229 155.44525585 -139.30979112 154.70223946 -138.02783203 153.95849609 C-135.36138502 152.41226652 -132.69304857 150.8693729 -130.0234375 149.32861328 C-124.23522125 145.98378627 -118.47456693 142.59211445 -112.7116394 139.20397949 C-108.56743994 136.76936646 -104.41820335 134.34334265 -100.27001953 131.91552734 C-97.18722034 130.10967081 -94.10717952 128.29918519 -91.02734375 126.48828125 C-89.2892353 125.47105886 -87.55096685 124.45410977 -85.8125 123.4375 C-85.03438965 122.97811035 -84.2562793 122.5187207 -83.45458984 122.04541016 C-78.22821876 119 -78.22821876 119 -76 119 C-75.82852951 118.33962738 -75.65705902 117.67925476 -75.48039246 116.99887085 C-73.63593986 110.04932487 -71.47651361 103.26534148 -69.11328125 96.4765625 C-68.73900497 95.39225449 -68.3647287 94.30794647 -67.97911072 93.19078064 C-66.76130351 89.66731231 -65.53767817 86.14591166 -64.3125 82.625 C-63.89359497 81.42011932 -63.47468994 80.21523865 -63.04309082 78.97384644 C-61.31361582 74.00096883 -59.58313131 69.02845096 -57.84835815 64.05741882 C-55.38655017 57.00059864 -52.94636453 49.93701045 -50.53215027 42.86376953 C-49.11792967 38.72955848 -47.68844521 34.60073919 -46.25521851 30.4730835 C-45.59101632 28.54990369 -44.93319665 26.62450637 -44.28213501 24.69683838 C-36.98442692 3.1210675 -36.98442692 3.1210675 -26.875 -2.4375 C-18.08638893 -6.22800783 -7.86862686 -5.92679834 0 0 Z " fill="#FFBBAA" transform="translate(462,123)"/>
<path d="M0 0 C8.86114021 6.15688093 11.56479354 15.34590348 14.77246094 25.11181641 C15.31363165 26.71070732 15.85682513 28.30891477 16.40185547 29.90649414 C17.60150745 33.42962401 18.79112179 36.95594761 19.97509766 40.484375 C23.2961587 50.35322768 26.73667472 60.18126292 30.15292358 70.01745605 C31.30571957 73.34003713 32.45545745 76.66365643 33.60375977 79.98779297 C34.15127647 81.5727507 34.15127647 81.5727507 34.70985413 83.18972778 C35.42635114 85.26441323 36.14261397 87.33917957 36.85862732 89.41403198 C38.57450222 94.38015138 40.30198108 99.3416703 42.0546875 104.29492188 C42.38296539 105.22437119 42.71124329 106.1538205 43.04946899 107.11143494 C43.66697273 108.856848 44.28709179 110.60133876 44.9102478 112.34474182 C46.95996094 118.1406911 46.95996094 118.1406911 46.95996094 120.36181641 C47.83491211 120.62647705 48.70986328 120.8911377 49.61132812 121.16381836 C52.88879431 122.33635602 55.56423617 123.73331934 58.53808594 125.52978516 C59.60341553 126.16819336 60.66874512 126.80660156 61.76635742 127.46435547 C62.60709305 127.97343445 62.60709305 127.97343445 63.46481323 128.49279785 C66.47296369 130.31394271 69.49255586 132.11596457 72.51074219 133.92041016 C73.12994034 134.2912674 73.74913849 134.66212463 74.38710022 135.04421997 C80.68143084 138.80788679 87.03571307 142.46327884 93.39746094 146.11181641 C96.57928893 147.94570026 99.75990961 149.78165581 102.93994141 151.61865234 C104.91677118 152.75968424 106.89491306 153.89844666 108.87451172 155.03466797 C128.07789039 166.08721247 128.07789039 166.08721247 135.95996094 174.36181641 C136.58644531 174.96896484 137.21292969 175.57611328 137.85839844 176.20166016 C143.38062402 181.90474465 147.07134626 189.01280525 149.95996094 196.36181641 C150.22398209 197.02656982 150.48800323 197.69132324 150.76002502 198.3762207 C154.06525126 208.3758632 153.3341968 218.82018249 153.25292969 229.21728516 C153.24732604 231.33148394 153.24305958 233.44568665 153.24006653 235.55989075 C153.22867831 241.09187809 153.19926358 246.6236246 153.16595459 252.15551758 C153.13512315 257.81344344 153.12153338 263.47140866 153.10644531 269.12939453 C153.07438762 280.2069736 153.02326498 291.28437488 152.95996094 302.36181641 C155.59996094 302.36181641 158.23996094 302.36181641 160.95996094 302.36181641 C160.95996094 323.48181641 160.95996094 344.60181641 160.95996094 366.36181641 C123.99996094 366.36181641 87.03996094 366.36181641 48.95996094 366.36181641 C48.95996094 345.24181641 48.95996094 324.12181641 48.95996094 302.36181641 C51.59996094 302.36181641 54.23996094 302.36181641 56.95996094 302.36181641 C56.84841831 298.4238175 56.71820357 294.48663609 56.58496094 290.54931641 C56.55402344 289.44910156 56.52308594 288.34888672 56.49121094 287.21533203 C55.92279343 271.15753734 53.47425214 261.11390225 41.76074219 249.95947266 C38.87900129 247.28672831 35.97481427 244.6577442 32.98730469 242.10400391 C30.60976672 240.0608788 28.28527401 237.96415426 25.95996094 235.86181641 C22.97933373 233.1719821 19.98750861 230.49871277 16.95996094 227.86181641 C13.93241326 225.22492005 10.94058814 222.55165071 7.95996094 219.86181641 C4.91344994 217.11389148 1.85823441 214.37809858 -1.22753906 211.67431641 C-1.86691406 211.11099609 -2.50628906 210.54767578 -3.16503906 209.96728516 C-4.38967665 208.91868923 -5.6394213 207.89854388 -6.91503906 206.91259766 C-14.6234176 200.84889472 -17.63918592 192.59344155 -20.16894531 183.36572266 C-20.45500137 182.35449844 -20.74105743 181.34327423 -21.03578186 180.30140686 C-22.05600173 176.65988804 -23.05223467 173.01222432 -24.04003906 169.36181641 C-24.2344735 168.64391685 -24.42890793 167.9260173 -24.62923431 167.18636322 C-27.88413733 155.15175417 -31.07330525 143.09988941 -34.25274658 131.04516602 C-35.45190261 126.50220756 -36.6554698 121.96041768 -37.85839844 117.41845703 C-39.26875572 112.09316951 -40.67654877 106.76725366 -42.0730896 101.43832397 C-42.52414454 99.71734487 -42.97520446 97.99636707 -43.42626953 96.27539062 C-43.6454775 95.4387557 -43.86468548 94.60212078 -44.09053612 93.74013329 C-45.34780296 88.95449753 -46.63012834 84.17668602 -47.94036388 79.40528393 C-48.72106157 76.55618908 -49.48918563 73.70378943 -50.25540352 70.85077095 C-50.77381183 68.93993404 -51.30988993 67.03391773 -51.84666443 65.12815857 C-53.97850121 57.14387103 -54.93270837 50.22051445 -51.87597656 42.37353516 C-48.49464587 36.99414541 -45.49303927 33.65419389 -40.04003906 30.36181641 C-39.05003906 29.70181641 -38.06003906 29.04181641 -37.04003906 28.36181641 C-37.183125 27.52650391 -37.183125 27.52650391 -37.32910156 26.67431641 C-38.63547412 17.68161226 -36.94911393 11.75932851 -31.67675781 4.34228516 C-24.03573844 -4.90353065 -10.05040965 -6.03956696 0 0 Z " fill="#FFBBAA" transform="translate(79.0400390625,121.63818359375)"/>
<path d="M0 0 C36.96 0 73.92 0 112 0 C112 21.12 112 42.24 112 64 C75.04 64 38.08 64 0 64 C0 42.88 0 21.76 0 0 Z " fill="#006DF0" transform="translate(272,424)"/>
<path d="M0 0 C36.96 0 73.92 0 112 0 C112 21.12 112 42.24 112 64 C75.04 64 38.08 64 0 64 C0 42.88 0 21.76 0 0 Z " fill="#006DF0" transform="translate(128,424)"/>
<path d="M0 0 C10.56 0 21.12 0 32 0 C32 10.56 32 21.12 32 32 C42.56 32 53.12 32 64 32 C64 42.56 64 53.12 64 64 C53.44 64 42.88 64 32 64 C32 74.56 32 85.12 32 96 C21.44 96 10.88 96 0 96 C0 85.44 0 74.88 0 64 C-10.56 64 -21.12 64 -32 64 C-32 53.44 -32 42.88 -32 32 C-21.44 32 -10.88 32 0 32 C0 21.44 0 10.88 0 0 Z " fill="#F1F2F2" transform="translate(240,80)"/>
<path d="M0 0 C7.45609848 6.31644969 9.87507332 14.80684921 12.8125 23.75 C13.35367071 25.34889092 13.89686419 26.94709837 14.44189453 28.54467773 C15.64154652 32.0678076 16.83116085 35.5941312 18.01513672 39.12255859 C21.33619777 48.99141128 24.77671378 58.81944651 28.19296265 68.65563965 C29.34575863 71.97822072 30.49549651 75.30184003 31.64379883 78.62597656 C32.19131554 80.2109343 32.19131554 80.2109343 32.74989319 81.82791138 C33.46639021 83.90259682 34.18265303 85.97736316 34.89866638 88.05221558 C36.61454128 93.01833498 38.34202014 97.97985389 40.09472656 102.93310547 C40.42300446 103.86255478 40.75128235 104.79200409 41.08950806 105.74961853 C41.70701179 107.4950316 42.32713086 109.23952236 42.95028687 110.98292542 C45 116.7788747 45 116.7788747 45 119 C44.02160156 118.94199219 43.04320313 118.88398438 42.03515625 118.82421875 C33.75931549 118.53940614 27.83971526 118.91642785 21 124 C20.01 124.66 19.02 125.32 18 126 C16.24709135 120.77180435 14.49742203 115.54253201 12.75 110.3125 C12.48388916 109.51611115 12.21777832 108.71972229 11.94360352 107.89920044 C7.21176242 93.72754854 2.57819501 79.52550077 -1.98925781 65.30004883 C-6.93635263 46.38670129 -6.93635263 46.38670129 -19 32 C-25.28701078 29.07328808 -31.10909804 28.36734588 -38 28 C-40.45473928 22.51293573 -40.43320649 17.74125661 -39 12 C-35.47162524 3.84211338 -30.84784685 -0.94898787 -22.75 -4.375 C-14.57307409 -5.73782099 -6.86908566 -4.7727653 0 0 Z " fill="#FFAC96" transform="translate(81,123)"/>
<path d="M0 0 C4.56353634 4.93876044 8.03293108 10.10502575 8.75 16.875 C8.84796875 17.69742188 8.9459375 18.51984375 9.046875 19.3671875 C8.99026925 22.54654372 8.1211937 25.04177355 7 28 C6.16597656 28.01417969 5.33195312 28.02835938 4.47265625 28.04296875 C-4.93172092 28.4415506 -11.03387263 30.1220088 -17.8125 36.75 C-23.06282512 44.55048304 -25.5080166 53.44259084 -28.1875 62.375 C-28.97614247 64.96747805 -29.77046116 67.55819308 -30.56640625 70.1484375 C-30.76743958 70.80342224 -30.9684729 71.45840698 -31.17559814 72.13323975 C-34.24453857 82.0892571 -37.60072775 91.95154872 -40.93017578 101.82275391 C-42.65330026 106.94022127 -44.35731838 112.06403225 -46.0625 117.1875 C-46.636626 118.91018716 -47.21083439 120.63284687 -47.78515625 122.35546875 C-48.38650391 124.15951172 -48.38650391 124.15951172 -49 126 C-50.5778125 124.824375 -50.5778125 124.824375 -52.1875 123.625 C-57.75637179 119.69050887 -61.99146864 118.70529013 -68.8125 118.875 C-69.50537109 118.88402344 -70.19824219 118.89304687 -70.91210938 118.90234375 C-72.60822395 118.92573843 -74.30415871 118.96160359 -76 119 C-74.01884519 111.37011338 -71.70432584 103.91977009 -69.11328125 96.4765625 C-68.55186684 94.85010048 -68.55186684 94.85010048 -67.97911072 93.19078064 C-66.76130351 89.66731231 -65.53767817 86.14591166 -64.3125 82.625 C-63.89359497 81.42011932 -63.47468994 80.21523865 -63.04309082 78.97384644 C-61.31361582 74.00096883 -59.58313131 69.02845096 -57.84835815 64.05741882 C-55.38655017 57.00059864 -52.94636453 49.93701045 -50.53215027 42.86376953 C-49.11792967 38.72955848 -47.68844521 34.60073919 -46.25521851 30.4730835 C-45.59101632 28.54990369 -44.93319665 26.62450637 -44.28213501 24.69683838 C-36.98442692 3.1210675 -36.98442692 3.1210675 -26.875 -2.4375 C-18.08638893 -6.22800783 -7.86862686 -5.92679834 0 0 Z " fill="#FFAC96" transform="translate(462,123)"/>
<path d="M0 0 C21.06727318 -0.47048501 39.87801171 3.61180534 55.6640625 18.67578125 C56.43492187 19.44277344 57.20578125 20.20976563 58 21 C58.68835938 21.65355469 59.37671875 22.30710937 60.0859375 22.98046875 C73.72443288 36.91545316 78.50868594 54.69299083 78.42480469 73.68725586 C78.12942879 85.17245529 75.79617078 95.76036894 70.1484375 105.88671875 C68.93548431 107.98563906 68.93548431 107.98563906 68.1749258 110.34285164 C64.13064115 119.48918608 54.16293842 126.97726298 47.15600586 133.95751953 C46.10028938 135.01295314 45.04479463 136.06860858 43.98950195 137.12446594 C41.15558178 139.95867018 38.31861397 142.78980514 35.48104167 145.62035227 C32.50439422 148.59070044 29.53062449 151.56392695 26.55653381 154.53683472 C20.93832837 160.15194607 15.31758131 165.76450595 9.69589096 171.37612808 C3.28994065 177.77085718 -3.11313203 184.16846441 -9.51597798 190.56630158 C-22.67414457 203.71404738 -35.83587708 216.8582181 -49 230 C-52.76690636 228.26142784 -55.21232537 226.09741625 -58 223 C-58 222.34 -58 221.68 -58 221 C-56.57381344 219.59158611 -56.57381344 219.59158611 -54.57566833 217.94059753 C-49.74780441 213.8314567 -45.27358805 209.428588 -40.78930664 204.95043945 C-39.90526657 204.07136429 -39.0212265 203.19228912 -38.11039734 202.28657532 C-35.7075039 199.89570039 -33.30687924 197.50259977 -30.90775609 195.10794473 C-29.4025062 193.6056462 -27.89667962 192.103928 -26.39068413 190.60237694 C-21.6604044 185.88573565 -16.93210554 181.167122 -12.20670134 176.44559604 C-6.78586759 171.02923827 -1.358564 165.61947674 4.07450384 160.21539146 C8.29754219 156.01408711 12.51468382 151.80692132 16.72753435 147.59540147 C19.23307313 145.0909021 21.74089305 142.58880329 24.25492668 140.09282875 C41.70472509 123.17961186 41.70472509 123.17961186 54.875 102.9375 C55.40867187 101.87402344 55.94234375 100.81054688 56.4921875 99.71484375 C60.35234926 90.78272579 61.48224267 82.23221419 61.375 72.5625 C61.38660156 71.52029297 61.39820313 70.47808594 61.41015625 69.40429688 C61.34067728 50.7260347 54.03245143 34.14508822 41.1875 20.6875 C29.4337995 9.47296007 15.8005267 3.83717487 0 1 C0 0.67 0 0.34 0 0 Z " fill="#BD0022" transform="translate(306,26)"/>
<path d="M0 0 C0.66 0 1.32 0 2 0 C2.9375 1.5390625 2.9375 1.5390625 4 3.625 C6.05172254 7.01735646 7.88555228 8.84057256 11.32421875 10.796875 C12.21415527 11.30750488 13.1040918 11.81813477 14.02099609 12.34423828 C15.00406738 12.89063965 15.98713867 13.43704102 17 14 C18.05396973 14.58894043 19.10793945 15.17788086 20.19384766 15.78466797 C23.10847151 17.40138323 26.02838622 19.00747389 28.95251465 20.60687256 C38.75104276 25.97043649 48.529536 31.37110524 58.25 36.875 C59.13018799 37.36822754 60.01037598 37.86145508 60.91723633 38.36962891 C61.71282959 38.82257324 62.50842285 39.27551758 63.328125 39.7421875 C64.0180957 40.1326123 64.70806641 40.52303711 65.41894531 40.92529297 C67 42 67 42 68 44 C68.57003257 50.27035831 68.57003257 50.27035831 66.4375 53 C63.03569711 54.39561144 60.44361304 53.98897071 57 53 C53.10645242 51.23803342 49.40844721 49.16053428 45.6875 47.0625 C44.63167725 46.47782959 43.57585449 45.89315918 42.48803711 45.29077148 C40.34139729 44.10071759 38.19724723 42.90616107 36.05566406 41.70703125 C33.29290208 40.16362826 30.52095932 38.63932876 27.7421875 37.125 C23.46992236 34.79273637 19.22457409 32.41751079 15 30 C14.03320312 29.44957031 13.06640625 28.89914062 12.0703125 28.33203125 C6.33052253 24.82229083 2.54558171 20.6075832 0.37890625 14.1484375 C-0.11926438 11.32375867 -0.09365522 8.61628003 -0.0625 5.75 C-0.04896484 4.13351562 -0.04896484 4.13351562 -0.03515625 2.484375 C-0.02355469 1.66453125 -0.01195313 0.8446875 0 0 Z " fill="#FFAC96" transform="translate(94,258)"/>
<path d="M0 0 C0.66 0 1.32 0 2 0 C2.38917882 8.64841813 2.55030206 15.61433275 -3.125 22.625 C-10.27191484 28.52897313 -18.27623441 32.91743563 -26.4375 37.25 C-35.45021007 42.04759805 -35.45021007 42.04759805 -44.3203125 47.1015625 C-45.12670166 47.57174805 -45.93309082 48.04193359 -46.76391602 48.52636719 C-48.25260731 49.39981708 -49.73297771 50.28767226 -51.20288086 51.19238281 C-54.82245412 53.29771178 -56.55766581 54.01339054 -60.87109375 53.8828125 C-64 53 -64 53 -66 51 C-66.375 47.625 -66.375 47.625 -66 44 C-63.42290493 40.92656468 -60.69471241 39.07806989 -57.16796875 37.22265625 C-56.2155127 36.71549072 -55.26305664 36.2083252 -54.28173828 35.68579102 C-53.26063965 35.15010498 -52.23954102 34.61441895 -51.1875 34.0625 C-49.02118839 32.90802529 -46.85584877 31.75172514 -44.69140625 30.59375 C-43.5842627 30.00207031 -42.47711914 29.41039062 -41.33642578 28.80078125 C-36.06190088 25.9539427 -30.84016634 23.01634061 -25.625 20.0625 C-24.24671021 19.28434937 -24.24671021 19.28434937 -22.84057617 18.49047852 C-20.22056066 17.00469575 -17.61019108 15.50295691 -15 14 C-14.0831543 13.48598633 -13.16630859 12.97197266 -12.22167969 12.44238281 C-11.33125977 11.9315918 -10.44083984 11.42080078 -9.5234375 10.89453125 C-8.32726807 10.21741089 -8.32726807 10.21741089 -7.10693359 9.52661133 C-4.12286402 7.36445756 -2.58959245 4.78250871 -0.9375 1.5390625 C-0.4734375 0.77722656 -0.4734375 0.77722656 0 0 Z " fill="#FFAC96" transform="translate(416,258)"/>
</svg>
